<?xml version="1.0" encoding="UTF-8" standalone="no"?>
<!-- Created with Inkscape (http://www.inkscape.org/) -->

<svg
   width="38.099998mm"
   height="38.099998mm"
   viewBox="0 0 38.099998 38.099998"
   version="1.1"
   id="svg1015"
   xml:space="preserve"
   inkscape:version="1.2.2 (b0a8486541, 2022-12-01)"
   sodipodi:docname="favicon.svg"
   inkscape:export-filename="favicon.png"
   inkscape:export-xdpi="96"
   inkscape:export-ydpi="96"
   xmlns:inkscape="http://www.inkscape.org/namespaces/inkscape"
   xmlns:sodipodi="http://sodipodi.sourceforge.net/DTD/sodipodi-0.dtd"
   xmlns:xlink="http://www.w3.org/1999/xlink"
   xmlns="http://www.w3.org/2000/svg"
   xmlns:svg="http://www.w3.org/2000/svg"><sodipodi:namedview
     id="namedview1017"
     pagecolor="#ffffff"
     bordercolor="#000000"
     borderopacity="0.25"
     inkscape:showpageshadow="2"
     inkscape:pageopacity="0"
     inkscape:pagecheckerboard="false"
     inkscape:deskcolor="#d1d1d1"
     inkscape:document-units="mm"
     showgrid="false"
     inkscape:zoom="4.4861113"
     inkscape:cx="55.170276"
     inkscape:cy="71.999997"
     inkscape:window-width="1600"
     inkscape:window-height="849"
     inkscape:window-x="0"
     inkscape:window-y="27"
     inkscape:window-maximized="1"
     inkscape:current-layer="layer1" /><defs
     id="defs1012"><linearGradient
       inkscape:collect="always"
       id="linearGradient4822"><stop
         style="stop-color:#f3cb51;stop-opacity:1"
         offset="0"
         id="stop4818" /><stop
         style="stop-color:#99740b;stop-opacity:1;"
         offset="1"
         id="stop4820" /></linearGradient><linearGradient
       inkscape:collect="always"
       id="linearGradient2082"><stop
         style="stop-color:#f3cb51;stop-opacity:1"
         offset="0"
         id="stop2078" /><stop
         style="stop-color:#f0d27f;stop-opacity:1"
         offset="1"
         id="stop2080" /></linearGradient><linearGradient
       inkscape:collect="always"
       id="linearGradient51688"><stop
         style="stop-color:#f92b2d;stop-opacity:1"
         offset="0"
         id="stop51684" /><stop
         style="stop-color:#b30708;stop-opacity:1;"
         offset="1"
         id="stop51686" /></linearGradient><linearGradient
       inkscape:collect="always"
       id="linearGradient49900"><stop
         style="stop-color:#f3cb51;stop-opacity:1"
         offset="0"
         id="stop49896" /><stop
         style="stop-color:#f0d27f;stop-opacity:1"
         offset="1"
         id="stop49898" /></linearGradient><linearGradient
       inkscape:collect="always"
       id="linearGradient47760"><stop
         style="stop-color:#f0d27f;stop-opacity:1"
         offset="0"
         id="stop47756" /><stop
         style="stop-color:#f3cb51;stop-opacity:1"
         offset="1"
         id="stop47758" /></linearGradient><linearGradient
       inkscape:collect="always"
       id="linearGradient44639"><stop
         style="stop-color:#f0d27f;stop-opacity:1"
         offset="0"
         id="stop44635" /><stop
         style="stop-color:#f3cb51;stop-opacity:1"
         offset="1"
         id="stop44637" /></linearGradient><linearGradient
       inkscape:collect="always"
       id="linearGradient41035"><stop
         style="stop-color:#f0d27f;stop-opacity:1"
         offset="0"
         id="stop41031" /><stop
         style="stop-color:#f3cb51;stop-opacity:1"
         offset="1"
         id="stop41033" /></linearGradient><linearGradient
       inkscape:collect="always"
       id="linearGradient38265"><stop
         style="stop-color:#f0d27f;stop-opacity:1"
         offset="0"
         id="stop38261" /><stop
         style="stop-color:#f3cb51;stop-opacity:1"
         offset="1"
         id="stop38263" /></linearGradient><linearGradient
       inkscape:collect="always"
       id="linearGradient36944"><stop
         style="stop-color:#f0d27f;stop-opacity:1"
         offset="0"
         id="stop36940" /><stop
         style="stop-color:#f3cb51;stop-opacity:1"
         offset="1"
         id="stop36942" /></linearGradient><filter
       inkscape:collect="always"
       style="color-interpolation-filters:sRGB"
       id="filter33142"
       x="-0.024374489"
       y="-0.057774518"
       width="1.0487762"
       height="1.1155228"><feGaussianBlur
         inkscape:collect="always"
         stdDeviation="0.44294577"
         id="feGaussianBlur33144" /></filter><clipPath
       clipPathUnits="userSpaceOnUse"
       id="clipPath33209"><circle
         style="fill:#f92b2d;fill-opacity:1;stroke:none;stroke-width:3.26866;stroke-linecap:round;stroke-linejoin:round;stroke-dasharray:none;stroke-opacity:1;paint-order:fill markers stroke;stop-color:#000000"
         id="circle33211"
         cx="-791.54608"
         cy="240.09283"
         r="11.561198" /></clipPath><filter
       inkscape:collect="always"
       style="color-interpolation-filters:sRGB"
       id="filter33215"
       x="-0.02266114"
       y="-0.029437138"
       width="1.045307"
       height="1.0591119"><feGaussianBlur
         inkscape:collect="always"
         stdDeviation="0.22721114"
         id="feGaussianBlur33217" /></filter><clipPath
       clipPathUnits="userSpaceOnUse"
       id="clipPath33224"><circle
         style="fill:#f92b2d;fill-opacity:1;stroke:none;stroke-width:3.26866;stroke-linecap:round;stroke-linejoin:round;stroke-dasharray:none;stroke-opacity:1;paint-order:fill markers stroke;stop-color:#000000"
         id="circle33226"
         cx="-791.54608"
         cy="240.09283"
         r="11.561198" /></clipPath><radialGradient
       inkscape:collect="always"
       xlink:href="#linearGradient51688"
       id="radialGradient7726"
       gradientUnits="userSpaceOnUse"
       gradientTransform="matrix(0.40653762,1.4018432e-6,-8.1580109e-7,0.23658411,-971.27305,-884.66297)"
       cx="-789.80383"
       cy="232.34956"
       fx="-789.80383"
       fy="232.34956"
       r="11.561197" /><radialGradient
       inkscape:collect="always"
       xlink:href="#linearGradient47760"
       id="radialGradient7728"
       gradientUnits="userSpaceOnUse"
       gradientTransform="matrix(0.28999694,0,0,0.22326316,-1063.3175,-881.04749)"
       cx="-791.95404"
       cy="240.16373"
       fx="-791.95404"
       fy="240.16373"
       r="17.867796" /><radialGradient
       inkscape:collect="always"
       xlink:href="#linearGradient36944"
       id="radialGradient7730"
       gradientUnits="userSpaceOnUse"
       gradientTransform="matrix(0.2720811,-0.1003499,0.04723475,0.12806872,-1088.9319,-937.00965)"
       cx="-785.00604"
       cy="244.53186"
       fx="-785.00604"
       fy="244.53186"
       r="52.944607" /><radialGradient
       inkscape:collect="always"
       xlink:href="#linearGradient38265"
       id="radialGradient7732"
       gradientUnits="userSpaceOnUse"
       gradientTransform="matrix(0.11609518,-0.04800449,0.02042077,0.04938606,-1204.7563,-877.0166)"
       cx="-785.14294"
       cy="240.00705"
       fx="-785.14294"
       fy="240.00705"
       r="42.848038" /><radialGradient
       inkscape:collect="always"
       xlink:href="#linearGradient41035"
       id="radialGradient7734"
       gradientUnits="userSpaceOnUse"
       gradientTransform="matrix(0.24902079,-0.10184209,0.0236852,0.05791423,-1101.1742,-921.33364)"
       cx="-785.14276"
       cy="240.007"
       fx="-785.14276"
       fy="240.007"
       r="34.621483" /><radialGradient
       inkscape:collect="always"
       xlink:href="#linearGradient44639"
       id="radialGradient7736"
       gradientUnits="userSpaceOnUse"
       gradientTransform="matrix(0.23623201,-0.10246467,0.02437841,0.05620433,-1111.3817,-921.41209)"
       cx="-785.14307"
       cy="240.007"
       fx="-785.14307"
       fy="240.007"
       r="27.142662" /><radialGradient
       inkscape:collect="always"
       xlink:href="#linearGradient49900"
       id="radialGradient7738"
       gradientUnits="userSpaceOnUse"
       gradientTransform="matrix(0.28999694,0,0,0.27671099,-1069.6507,-893.06746)"
       cx="-766.31915"
       cy="214.27184"
       fx="-766.31915"
       fy="214.27184"
       r="3.5641708" /><linearGradient
       inkscape:collect="always"
       xlink:href="#linearGradient2082"
       id="linearGradient7740"
       gradientUnits="userSpaceOnUse"
       gradientTransform="matrix(1.1589507,0,0,1.1589507,-108.21414,-5.3085484)"
       x1="-781.47894"
       y1="45.375233"
       x2="-751.0321"
       y2="45.375233" /><radialGradient
       inkscape:collect="always"
       xlink:href="#linearGradient4822"
       id="radialGradient4824"
       cx="-2895.6343"
       cy="36.582298"
       fx="-2895.6343"
       fy="36.582298"
       r="91.251236"
       gradientTransform="matrix(0.5199783,0,0,0.29262357,-1420.2948,47.05476)"
       gradientUnits="userSpaceOnUse" /></defs><g
     inkscape:label="Layer 1"
     inkscape:groupmode="layer"
     id="layer1"
     transform="translate(1311.9176,846.45259)"><circle
       style="fill:#111111;fill-opacity:1;stroke-width:0.183797;stroke-linecap:round;stroke-linejoin:round;stroke-dasharray:none;paint-order:fill markers stroke;stop-color:#000000"
       id="path7858"
       cx="-1292.8676"
       cy="-827.40259"
       r="19.049999"
       inkscape:export-filename="path7858.png"
       inkscape:export-xdpi="96"
       inkscape:export-ydpi="96" /><g
       id="g1046"
       transform="translate(-1.8609751,0.46351936)"><circle
         style="fill:url(#radialGradient7726);fill-opacity:1;stroke:none;stroke-width:0.947902;stroke-linecap:round;stroke-linejoin:round;stroke-dasharray:none;stroke-opacity:1;paint-order:fill markers stroke;stop-color:#000000"
         id="circle7690"
         cx="-1292.8634"
         cy="-827.4483"
         r="3.3527117" /><path
         id="path7692"
         style="opacity:0.365931;fill:#000000;fill-opacity:1;stroke:#000000;stroke-width:0.529167;stroke-linecap:round;stroke-linejoin:round;stroke-dasharray:none;stroke-opacity:1;paint-order:fill markers stroke;filter:url(#filter33215);stop-color:#000000"
         d="m -809.45757,226.40789 c -0.12853,-0.003 -0.21784,0.0268 -0.26613,0.0904 -1.10406,0.68271 7.33526,8.81684 14.05754,13.98674 5.00812,4.21012 17.21918,12.31987 20.69589,13.33046 0.35967,0.1045 0.62577,0.13288 0.78083,0.0734 0.65524,-0.64709 -1.89491,-3.27433 -5.48648,-6.37584 l -0.35244,0.26716 c 2.09393,1.92927 3.39535,3.44282 2.95331,3.87935 -0.12987,0.0498 -0.35255,0.0263 -0.65371,-0.0615 -2.91193,-0.84642 -13.13976,-7.63901 -17.33434,-11.16521 -5.63027,-4.33008 -12.69866,-11.14272 -11.77396,-11.71453 0.28903,-0.38082 2.34646,0.69759 5.45859,2.75849 l 0.22996,-0.28836 c -4.27065,-2.95032 -7.35913,-4.75871 -8.30906,-4.78058 z"
         clip-path="url(#clipPath33224)"
         transform="matrix(0.28999694,0,0,0.28999694,-1063.3175,-897.07453)" /><path
         id="path7694"
         style="fill:url(#radialGradient7728);fill-opacity:1;stroke:none;stroke-width:0.341076;stroke-linecap:round;stroke-linejoin:round;stroke-dasharray:none;stroke-opacity:1;paint-order:fill markers stroke;stop-color:#000000"
         d="m -1298.0578,-831.41693 c -0.037,-8.8e-4 -0.063,0.008 -0.078,0.0262 -0.3201,0.19798 2.1273,2.55684 4.0767,4.05611 1.4524,1.22092 4.9935,3.57272 6.0018,3.86578 0.1054,0.0303 0.1814,0.0386 0.2263,0.0213 0.2221,-0.21925 -0.8243,-1.22238 -2.1398,-2.31308 a 3.3527119,3.3527119 0 0 1 -0.057,0.0947 c 0.8865,0.76337 1.5205,1.41311 1.3598,1.57188 -0.038,0.0145 -0.1027,0.008 -0.1897,-0.0178 -0.8443,-0.24545 -3.8105,-2.21528 -5.0268,-3.23787 -1.6328,-1.25571 -3.6826,-3.23135 -3.4144,-3.39717 0.095,-0.12488 0.8449,0.29114 1.9517,1.04841 a 3.3527119,3.3527119 0 0 1 0.07,-0.0731 c -1.4303,-1.00843 -2.4784,-1.63835 -2.7809,-1.64532 z" /><path
         id="path7696"
         style="opacity:0.492114;mix-blend-mode:normal;fill:#000000;fill-opacity:1;stroke:#000000;stroke-width:0.529167;stroke-linecap:round;stroke-linejoin:round;stroke-dasharray:none;stroke-opacity:1;paint-order:fill markers stroke;filter:url(#filter33142);stop-color:#000000"
         d="m -759.0715,228.51267 c -2.92999,0.0618 -10.99866,2.42757 -18.56475,5.07979 l 0.10903,0.57981 c 5.9287,-2.02682 11.9387,-3.74442 14.22084,-3.79253 0.41013,-0.009 0.69983,0.0367 0.84698,0.14366 1.07051,1.82761 -15.2781,8.88593 -23.93704,12.10468 -11.83694,4.88652 -20.99737,7.83688 -21.4204,6.80011 -0.35059,-0.37245 0.8845,-1.41724 3.0024,-2.76573 l -0.38086,-0.75292 c -4.51008,2.55027 -7.60303,4.72627 -7.01972,5.34592 0.50508,1.23789 11.44292,-2.28463 25.5757,-8.11888 10.33837,-3.84307 29.85726,-12.27026 28.57913,-14.45235 -0.1757,-0.12774 -0.52163,-0.18188 -1.01131,-0.17156 z"
         clip-path="url(#clipPath33209)"
         transform="matrix(0.28999694,0,0,0.28999694,-1063.3175,-897.07453)" /><path
         id="path7698"
         style="fill:url(#radialGradient7730);fill-opacity:1;stroke:none;stroke-width:0.869992;stroke-linecap:round;stroke-linejoin:round;stroke-dasharray:none;stroke-opacity:1;paint-order:fill markers stroke;stop-color:#000000"
         d="m -1276.2586,-833.97519 c -2.1512,0.0453 -9.2034,2.28481 -14.1685,4.2265 a 3.3527119,3.3527119 0 0 1 0.2141,0.25087 c 4.1373,-1.59755 9.8006,-3.38409 11.5587,-3.42116 0.232,-0.005 0.3958,0.0207 0.4791,0.0813 0.6055,1.03382 -8.6423,5.02635 -13.5403,6.84711 -6.6957,2.76414 -11.8777,4.43309 -12.117,3.8466 -0.442,-0.46958 3.5572,-2.82175 7.6607,-4.77513 a 3.3527119,3.3527119 0 0 1 -0.038,-0.34348 c -5.2148,2.40611 -10.673,5.55488 -10.1104,6.15235 0.2857,0.70023 6.4726,-1.29249 14.467,-4.59276 5.8482,-2.1739 16.8895,-6.94083 16.1665,-8.17517 -0.099,-0.0722 -0.295,-0.10275 -0.572,-0.0969 z" /><path
         id="path7700"
         style="fill:url(#radialGradient7732);fill-opacity:1;stroke:none;stroke-width:0.704086;stroke-linecap:round;stroke-linejoin:round;stroke-dasharray:none;stroke-opacity:1;paint-order:fill markers stroke;stop-color:#000000"
         d="m -1279.0711,-832.73525 c -1.6901,0.0357 -7.1147,1.74424 -11.107,3.28178 a 3.3527119,3.3527119 0 0 1 0.1474,0.21326 c 3.3122,-1.25825 7.6452,-2.61123 9.0209,-2.64024 0.1877,-0.004 0.3204,0.0167 0.3877,0.0656 0.49,0.83668 -6.9943,4.06784 -10.9582,5.54137 -5.419,2.23704 -9.6128,3.58785 -9.8064,3.1132 -0.3247,-0.34493 2.3132,-1.94516 5.2862,-3.41995 a 3.3527119,3.3527119 0 0 1 -0.061,-0.27874 c -3.9068,1.87156 -7.6598,4.08773 -7.2385,4.53521 0.2313,0.5667 5.2384,-1.04607 11.7084,-3.71697 4.7328,-1.75936 13.6685,-5.61722 13.0834,-6.61619 -0.08,-0.0585 -0.2387,-0.0831 -0.4629,-0.0784 z" /><path
         id="path7702"
         style="fill:url(#radialGradient7734);fill-opacity:1;stroke:none;stroke-width:0.568906;stroke-linecap:round;stroke-linejoin:round;stroke-dasharray:none;stroke-opacity:1;paint-order:fill markers stroke;stop-color:#000000"
         d="m -1281.3625,-831.72504 c -1.319,0.0278 -5.4565,1.31708 -8.644,2.52439 a 3.3527119,3.3527119 0 0 1 0.1054,0.18119 c 2.6295,-0.98131 5.9045,-1.99235 6.9729,-2.01487 0.1518,-0.003 0.259,0.0136 0.3134,0.0532 0.3959,0.67603 -5.6515,3.28674 -8.8543,4.47736 -4.3785,1.80754 -7.7671,2.89892 -7.9236,2.51541 -0.2293,-0.2437 1.3719,-1.26316 3.3833,-2.31204 a 3.3527119,3.3527119 0 0 1 -0.075,-0.22914 c -2.7999,1.39959 -5.2422,2.89081 -4.935,3.2172 0.1868,0.4579 4.2327,-0.84524 9.4604,-3.00335 3.8241,-1.42156 11.0444,-4.5388 10.5715,-5.34596 -0.065,-0.0473 -0.1929,-0.0672 -0.374,-0.0634 z" /><path
         id="path7704"
         style="fill:url(#radialGradient7736);fill-opacity:1;stroke:none;stroke-width:0.446012;stroke-linecap:round;stroke-linejoin:round;stroke-dasharray:none;stroke-opacity:1;paint-order:fill markers stroke;stop-color:#000000"
         d="m -1283.446,-830.80654 c -0.9865,0.0208 -3.9824,0.9419 -6.4261,1.84851 a 3.3527119,3.3527119 0 0 1 0.071,0.14657 c 1.9951,-0.7275 4.3352,-1.43695 5.1271,-1.45365 0.1185,-0.003 0.203,0.0105 0.2456,0.0416 0.3105,0.53 -4.4305,2.57689 -6.9417,3.51031 -3.4325,1.41708 -6.089,2.27268 -6.2118,1.97202 -0.1409,-0.14973 0.5991,-0.67308 1.6845,-1.2882 a 3.3527119,3.3527119 0 0 1 -0.083,-0.19302 c -1.7427,0.92598 -3.0801,1.79493 -2.8766,2.01112 0.1465,0.35898 3.3186,-0.66253 7.4169,-2.35445 2.9981,-1.11448 8.6586,-3.55833 8.2879,-4.19113 -0.051,-0.037 -0.1512,-0.0527 -0.2932,-0.0498 z" /><path
         style="fill:url(#radialGradient7738);fill-opacity:1;stroke-width:0.00905524"
         d="m -1292.5239,-832.79126 c 0,-0.003 0.054,-0.17339 0.1226,-0.37894 0.067,-0.20556 0.1185,-0.37644 0.1159,-0.37976 0,-0.004 -0.1431,-0.10472 -0.31,-0.22526 -0.1669,-0.12053 -0.3094,-0.22501 -0.3166,-0.23207 -0.013,-0.0105 0.041,-0.0119 0.385,-0.007 l 0.3983,0.007 0.051,-0.15765 c 0.029,-0.0867 0.083,-0.25645 0.1225,-0.37723 0.04,-0.12079 0.072,-0.21958 0.076,-0.21958 0,0 0.037,0.0988 0.075,0.21958 0.04,0.12079 0.093,0.29053 0.1225,0.37723 l 0.051,0.15765 0.3984,-0.007 c 0.3453,-0.005 0.3966,-0.004 0.385,0.007 0,0.007 -0.1499,0.11156 -0.3168,0.23204 -0.1668,0.12053 -0.3062,0.22185 -0.3099,0.22518 0,0.004 0.049,0.17459 0.1159,0.38059 0.067,0.206 0.1212,0.37564 0.1199,0.37695 0,0.001 -0.1443,-0.10116 -0.3177,-0.22762 -0.1732,-0.12645 -0.3189,-0.23002 -0.3234,-0.23002 0,0 -0.563,0.40138 -0.6314,0.45514 0,0.005 -0.013,0.007 -0.013,0.004 z m 1.1613,-0.1532 c 0,-0.007 -0.1185,-0.1621 -0.251,-0.34636 -0.1335,-0.18429 -0.246,-0.33893 -0.2503,-0.34366 0,-0.005 -0.013,0.0618 -0.013,0.15866 v 0.16725 l 0.2558,0.1873 c 0.1407,0.10301 0.2573,0.18747 0.2591,0.18771 0,2.3e-4 0,-0.005 0,-0.0105 z m -0.8013,-0.35647 c 0.1349,-0.18485 0.2466,-0.34016 0.2498,-0.34513 0,-0.005 -0.066,0.0137 -0.1531,0.0414 l -0.1586,0.0505 -0.095,0.2947 c -0.053,0.16209 -0.098,0.29878 -0.1001,0.30375 -0.017,0.0306 0.041,-0.045 0.2584,-0.34514 z m 0.8848,-0.4516 c 0.1348,-0.0971 0.2473,-0.1801 0.2518,-0.18458 0,-0.004 -0.1756,0.0515 -0.4001,0.12434 -0.2244,0.0729 -0.4082,0.13465 -0.4082,0.13727 -10e-5,0.007 0.2719,0.0977 0.2945,0.0987 0.013,5.7e-4 0.1252,-0.0763 0.262,-0.17569 z m -0.6654,0.007 c -0.02,-0.0286 -0.065,-0.0897 -0.097,-0.13584 l -0.059,-0.0838 -0.3173,2.4e-4 -0.3172,2.3e-4 0.2218,0.0727 c 0.1225,0.0401 0.3054,0.10064 0.4074,0.13481 0.1028,0.0341 0.1891,0.0624 0.1929,0.0628 0,5.7e-4 -0.013,-0.0226 -0.03,-0.0514 z m 0.1804,-0.10617 c 0.05,-0.0695 0.09,-0.13133 0.087,-0.13719 0,-0.005 -0.045,-0.13847 -0.095,-0.2946 -0.05,-0.15613 -0.092,-0.28796 -0.095,-0.29294 0,-0.005 0,0.18838 0,0.42967 0,0.25638 0,0.43516 0,0.43013 0,-0.005 0.049,-0.0655 0.099,-0.13507 z"
         id="path7706" /></g></g></svg>
